<svg xmlns="http://www.w3.org/2000/svg" xmlns:xlink="http://www.w3.org/1999/xlink" contentStyleType="text/css" data-diagram-type="SEQUENCE" height="455px" preserveAspectRatio="none" style="width:416px;height:455px;background:#393939;" version="1.1" viewBox="0 0 416 455" width="416px" zoomAndPan="magnify"><defs/><g><rect fill="#393939" height="455" style="stroke:none;stroke-width:1;" width="416" x="0" y="0"/><g><title>client-A</title><rect fill="#000000" fill-opacity="0.00000" height="383.7266" width="8" x="39.3745" y="36.4883"/><line style="stroke:#E7E7E7;stroke-width:0.5;stroke-dasharray:5,5;" x1="43" x2="43" y1="36.4883" y2="420.2148"/></g><g><title>database</title><rect fill="#000000" fill-opacity="0.00000" height="383.7266" width="8" x="206.7681" y="36.4883"/><line style="stroke:#E7E7E7;stroke-width:0.5;stroke-dasharray:5,5;" x1="210.2729" x2="210.2729" y1="36.4883" y2="420.2148"/></g><g><title>client-B</title><rect fill="#000000" fill-opacity="0.00000" height="383.7266" width="8" x="372.6699" y="36.4883"/><line style="stroke:#E7E7E7;stroke-width:0.5;stroke-dasharray:5,5;" x1="376.0986" x2="376.0986" y1="36.4883" y2="420.2148"/></g><g class="participant participant-head" data-participant="client-A"><rect fill="#222222" height="30.4883" rx="2.5" ry="2.5" style="stroke:#E7E7E7;stroke-width:0.5;" width="68.749" x="9" y="5"/><text fill="#FFFFFF" font-family="sans-serif" font-size="14" lengthAdjust="spacing" textLength="54.749" x="16" y="25.5352">client-A</text></g><g class="participant participant-tail" data-participant="client-A"><rect fill="#222222" height="30.4883" rx="2.5" ry="2.5" style="stroke:#E7E7E7;stroke-width:0.5;" width="68.749" x="9" y="419.2148"/><text fill="#FFFFFF" font-family="sans-serif" font-size="14" lengthAdjust="spacing" textLength="54.749" x="16" y="439.75">client-A</text></g><g class="participant participant-head" data-participant="database"><path d="M175.2729,10 L246.2632,10 C251.2632,10 251.2632,23.2441 251.2632,23.2441 C251.2632,23.2441 251.2632,36.4883 246.2632,36.4883 L175.2729,36.4883 C170.2729,36.4883 170.2729,23.2441 170.2729,23.2441 C170.2729,23.2441 170.2729,10 175.2729,10" fill="#222222" style="stroke:#E7E7E7;stroke-width:0.5;"/><path d="M246.2632,10 C241.2632,10 241.2632,23.2441 241.2632,23.2441 C241.2632,36.4883 246.2632,36.4883 246.2632,36.4883" fill="none" style="stroke:#E7E7E7;stroke-width:0.5;"/><text fill="#FFFFFF" font-family="sans-serif" font-size="14" lengthAdjust="spacing" textLength="60.9902" x="175.2729" y="28.5352">database</text></g><g class="participant participant-tail" data-participant="database"><path d="M175.2729,419.2148 L246.2632,419.2148 C251.2632,419.2148 251.2632,432.459 251.2632,432.459 C251.2632,432.459 251.2632,445.7031 246.2632,445.7031 L175.2729,445.7031 C170.2729,445.7031 170.2729,432.459 170.2729,432.459 C170.2729,432.459 170.2729,419.2148 175.2729,419.2148" fill="#222222" style="stroke:#E7E7E7;stroke-width:0.5;"/><path d="M246.2632,419.2148 C241.2632,419.2148 241.2632,432.459 241.2632,432.459 C241.2632,445.7031 246.2632,445.7031 246.2632,445.7031" fill="none" style="stroke:#E7E7E7;stroke-width:0.5;"/><text fill="#FFFFFF" font-family="sans-serif" font-size="14" lengthAdjust="spacing" textLength="60.9902" x="175.2729" y="437.75">database</text></g><g class="participant participant-head" data-participant="client-B"><rect fill="#222222" height="30.4883" rx="2.5" ry="2.5" style="stroke:#E7E7E7;stroke-width:0.5;" width="67.1426" x="343.0986" y="5"/><text fill="#FFFFFF" font-family="sans-serif" font-size="14" lengthAdjust="spacing" textLength="53.1426" x="350.0986" y="25.5352">client-B</text></g><g class="participant participant-tail" data-participant="client-B"><rect fill="#222222" height="30.4883" rx="2.5" ry="2.5" style="stroke:#E7E7E7;stroke-width:0.5;" width="67.1426" x="343.0986" y="419.2148"/><text fill="#FFFFFF" font-family="sans-serif" font-size="14" lengthAdjust="spacing" textLength="53.1426" x="350.0986" y="439.75">client-B</text></g><g class="message" data-participant-1="client-A" data-participant-2="database"><polygon fill="#6699CC" points="198.7681,66.7988,208.7681,70.7988,198.7681,74.7988,202.7681,70.7988" style="stroke:#6699CC;stroke-width:1;"/><line style="stroke:#6699CC;stroke-width:1;" x1="43.3745" x2="204.7681" y1="70.7988" y2="70.7988"/><text fill="#FFFFFF" font-family="sans-serif" font-size="13" lengthAdjust="spacing" textLength="103.5303" x="50.3745" y="66.0566">start transaction</text></g><path d="M5,51.4883 L5,76.4883 L39,76.4883 L39,61.4883 L29,51.4883 L5,51.4883" fill="#714137" style="stroke:#E7E7E7;stroke-width:0.5;"/><path d="M29,51.4883 L29,61.4883 L39,61.4883 L29,51.4883" fill="#714137" style="stroke:#E7E7E7;stroke-width:0.5;"/><text fill="#FFFFFF" font-family="sans-serif" font-size="13" lengthAdjust="spacing" textLength="13.0825" x="11" y="69.0566">t1</text><g class="message" data-participant-1="client-B" data-participant-2="database"><polygon fill="#6699CC" points="221.7681,99.1094,211.7681,103.1094,221.7681,107.1094,217.7681,103.1094" style="stroke:#6699CC;stroke-width:1;"/><line style="stroke:#6699CC;stroke-width:1;" x1="215.7681" x2="375.6699" y1="103.1094" y2="103.1094"/><text fill="#FFFFFF" font-family="sans-serif" font-size="13" lengthAdjust="spacing" textLength="103.5303" x="227.7681" y="98.3672">start transaction</text></g><g class="message" data-participant-1="database" data-participant-2="client-B"><line style="stroke:#E7E7E7;stroke-width:1;" x1="374.6699" x2="364.6699" y1="132.4199" y2="128.4199"/><line style="stroke:#E7E7E7;stroke-width:1;" x1="374.6699" x2="364.6699" y1="132.4199" y2="136.4199"/><line style="stroke:#E7E7E7;stroke-width:1;stroke-dasharray:2,2;" x1="210.7681" x2="375.6699" y1="132.4199" y2="132.4199"/><text fill="#FFFFFF" font-family="sans-serif" font-size="13" lengthAdjust="spacing" textLength="113.9976" x="217.7681" y="127.6777">read empty owner</text></g><g class="message" data-participant-1="database" data-participant-2="client-A"><line style="stroke:#E7E7E7;stroke-width:1;" x1="44.3745" x2="54.3745" y1="161.7305" y2="157.7305"/><line style="stroke:#E7E7E7;stroke-width:1;" x1="44.3745" x2="54.3745" y1="161.7305" y2="165.7305"/><line style="stroke:#E7E7E7;stroke-width:1;stroke-dasharray:2,2;" x1="43.3745" x2="209.7681" y1="161.7305" y2="161.7305"/><text fill="#FFFFFF" font-family="sans-serif" font-size="13" lengthAdjust="spacing" textLength="113.9976" x="60.3745" y="156.9883">read empty owner</text></g><g class="message" data-participant-1="client-A" data-participant-2="database"><line style="stroke:#E7E7E7;stroke-width:1;" x1="208.7681" x2="198.7681" y1="191.041" y2="187.041"/><line style="stroke:#E7E7E7;stroke-width:1;" x1="208.7681" x2="198.7681" y1="191.041" y2="195.041"/><line style="stroke:#E7E7E7;stroke-width:1;stroke-dasharray:2,2;" x1="43.3745" x2="209.7681" y1="191.041" y2="191.041"/><text fill="#FFFFFF" font-family="sans-serif" font-size="13" lengthAdjust="spacing" textLength="143.3936" x="50.3745" y="186.2988">write client-A is owner</text></g><g class="message" data-participant-1="client-B" data-participant-2="database"><line style="stroke:#E7E7E7;stroke-width:1;" x1="211.7681" x2="221.7681" y1="220.3516" y2="216.3516"/><line style="stroke:#E7E7E7;stroke-width:1;" x1="211.7681" x2="221.7681" y1="220.3516" y2="224.3516"/><line style="stroke:#E7E7E7;stroke-width:1;stroke-dasharray:2,2;" x1="210.7681" x2="375.6699" y1="220.3516" y2="220.3516"/><text fill="#FFFFFF" font-family="sans-serif" font-size="13" lengthAdjust="spacing" textLength="141.9019" x="227.7681" y="215.6094">write client-B is owner</text></g><g class="message" data-participant-1="client-B" data-participant-2="database"><polygon fill="#99CC99" points="221.7681,245.6621,211.7681,249.6621,221.7681,253.6621,217.7681,249.6621" style="stroke:#99CC99;stroke-width:1;"/><line style="stroke:#99CC99;stroke-width:1;" x1="215.7681" x2="375.6699" y1="249.6621" y2="249.6621"/><text fill="#FFFFFF" font-family="sans-serif" font-size="13" lengthAdjust="spacing" textLength="122.3574" x="227.7681" y="244.9199">commit is accepted</text></g><g class="message" data-participant-1="client-A" data-participant-2="database"><line style="stroke:#F2777A;stroke-width:2;" x1="192.7681" x2="202.7681" y1="276.9727" y2="286.9727"/><line style="stroke:#F2777A;stroke-width:2;" x1="192.7681" x2="202.7681" y1="286.9727" y2="276.9727"/><line style="stroke:#F2777A;stroke-width:1;" x1="43.3745" x2="197.7681" y1="281.9727" y2="281.9727"/><text fill="#FFFFFF" font-family="sans-serif" font-size="13" lengthAdjust="spacing" textLength="116.854" x="50.3745" y="277.2305">commit is rejected</text></g><path d="M5,262.6621 L5,287.6621 L39,287.6621 L39,272.6621 L29,262.6621 L5,262.6621" fill="#714137" style="stroke:#E7E7E7;stroke-width:0.5;"/><path d="M29,262.6621 L29,272.6621 L39,272.6621 L29,262.6621" fill="#714137" style="stroke:#E7E7E7;stroke-width:0.5;"/><text fill="#FFFFFF" font-family="sans-serif" font-size="13" lengthAdjust="spacing" textLength="13.0825" x="11" y="280.2305">t2</text><g class="message" data-participant-1="client-A" data-participant-2="database"><polygon fill="#6699CC" points="198.7681,310.2832,208.7681,314.2832,198.7681,318.2832,202.7681,314.2832" style="stroke:#6699CC;stroke-width:1;"/><line style="stroke:#6699CC;stroke-width:1;" x1="43.3745" x2="204.7681" y1="314.2832" y2="314.2832"/><text fill="#FFFFFF" font-family="sans-serif" font-size="13" lengthAdjust="spacing" textLength="103.5303" x="50.3745" y="309.541">start transaction</text></g><g class="message" data-participant-1="database" data-participant-2="client-A"><line style="stroke:#E7E7E7;stroke-width:1;" x1="44.3745" x2="54.3745" y1="343.5938" y2="339.5938"/><line style="stroke:#E7E7E7;stroke-width:1;" x1="44.3745" x2="54.3745" y1="343.5938" y2="347.5938"/><line style="stroke:#E7E7E7;stroke-width:1;stroke-dasharray:2,2;" x1="43.3745" x2="209.7681" y1="343.5938" y2="343.5938"/><text fill="#FFFFFF" font-family="sans-serif" font-size="13" lengthAdjust="spacing" textLength="138.6265" x="60.3745" y="338.8516">read client-B is owner</text></g><g class="message" data-participant-1="client-A" data-participant-2="database"><line style="stroke:#E7E7E7;stroke-width:1;" x1="208.7681" x2="198.7681" y1="372.9043" y2="368.9043"/><line style="stroke:#E7E7E7;stroke-width:1;" x1="208.7681" x2="198.7681" y1="372.9043" y2="376.9043"/><line style="stroke:#E7E7E7;stroke-width:1;stroke-dasharray:2,2;" x1="43.3745" x2="209.7681" y1="372.9043" y2="372.9043"/><text fill="#FFFFFF" font-family="sans-serif" font-size="13" lengthAdjust="spacing" textLength="109.0654" x="50.3745" y="368.1621">enqueue client-A</text></g><g class="message" data-participant-1="client-A" data-participant-2="database"><polygon fill="#99CC99" points="198.7681,398.2148,208.7681,402.2148,198.7681,406.2148,202.7681,402.2148" style="stroke:#99CC99;stroke-width:1;"/><line style="stroke:#99CC99;stroke-width:1;" x1="43.3745" x2="204.7681" y1="402.2148" y2="402.2148"/><text fill="#FFFFFF" font-family="sans-serif" font-size="13" lengthAdjust="spacing" textLength="122.3574" x="50.3745" y="397.4727">commit is accepted</text></g><!--SRC=[dP9DJyCm38RFpQ-mnhd0XhJHgQh4O3iXX3XnpH9l2hH9IHoD2V7VIKUtjViKgAUwpvFujPiwMkQOCMc4Br0JVB5enCNxt1glvRt9ZOMBcwHwMFIeDDQbyUsu_p1XqSHeEb1wuWN2YvaQCYnwvb8gFOVkTVd9lXcxT5u8T2xS1T0uCqc4I98LeT6JvVakqUzNp8gOSPLxYxl4h3SO37WWqgiw6Ikv9ILKoKEwZiXLI1dVTTY7HuyWEV4fTtYG6dKOsneGPniSqhHkCSk6u2Z84DwquuAKqKmRGiXnHaEWBjkUzvSpcbgQnl567895BW6BafPW5XejDDiymxOZnLdMO1TMXRxNdq6vMca6E66CjiRnpFNogyp258MYIkAXLXBALc-lJQtUTrkp-8OYQD0QUE-_MpipnFsKnoU9-lV_MWF7EpezZny0]--></g></svg>